<svg xmlns:dc="http://purl.org/dc/elements/1.1/" xmlns:cc="http://creativecommons.org/ns#" xmlns:rdf="http://www.w3.org/1999/02/22-rdf-syntax-ns#" xmlns:svg="http://www.w3.org/2000/svg" xmlns="http://www.w3.org/2000/svg" xmlns:sodipodi="http://sodipodi.sourceforge.net/DTD/sodipodi-0.dtd" xmlns:inkscape="http://www.inkscape.org/namespaces/inkscape" fill="#000000" version="1.1" x="0px" y="0px" viewBox="0 0 100 125"><path style="font-size:medium;font-style:normal;font-variant:normal;font-weight:normal;font-stretch:normal;text-indent:0;text-align:start;text-decoration:none;line-height:normal;letter-spacing:normal;word-spacing:normal;text-transform:none;direction:ltr;block-progression:tb;writing-mode:lr-tb;text-anchor:start;baseline-shift:baseline;opacity:1;color:#000000;fill:#000000;fill-opacity:1;stroke:none;stroke-width:6;marker:none;visibility:visible;display:inline;overflow:visible;enable-background:accumulate;font-family:Sans;-inkscape-font-specification:Sans" d="M 57.75 5 A 3.0003 3.0003 0 0 0 55.40625 6.5 L 15.40625 76.5 A 3.0003 3.0003 0 0 0 15 78 L 15 92 A 3.0003 3.0003 0 0 0 19.1875 94.75 L 33.1875 88.75 A 3.0003 3.0003 0 0 0 34.59375 87.5 L 74.59375 17.5 A 3.0003 3.0003 0 0 0 73.5 13.40625 L 59.5 5.40625 A 3.0003 3.0003 0 0 0 57.75 5 z M 59.125 12.09375 L 67.90625 17.125 L 64.1875 23.625 L 55.4375 18.53125 L 59.125 12.09375 z M 52.46875 23.75 L 61.21875 28.84375 L 29.90625 83.65625 L 21 87.46875 L 21 78.78125 L 52.46875 23.75 z M 43.6875 89 A 3.0040663 3.0040663 0 1 0 44 95 L 82 95 A 3.0003 3.0003 0 1 0 82 89 L 44 89 A 3.0003 3.0003 0 0 0 43.6875 89 z "/></svg>
