<svg xmlns="http://www.w3.org/2000/svg" xmlns:xlink="http://www.w3.org/1999/xlink" version="1.1" x="0px" y="0px" viewBox="-255 347 100 125" style="enable-background:new -255 347 100 100;" xml:space="preserve"><path d="M-223.6,389.3h37.2l-18.6-18.6L-223.6,389.3z M-217.3,417.1h10.5v-13.8c0-1,0.8-1.8,1.8-1.8c1,0,1.8,0.8,1.8,1.8v13.8h10.5  V393h-24.6V417.1z M-187.4,353.2c-5.4-2.2-11.4-3.4-17.6-3.4c-24.1,0-43.9,18-46.8,41.3c-0.2,1.9-0.4,3.9-0.4,5.9  c0,26.1,21.1,47.2,47.2,47.2c26.1,0,47.2-21.1,47.2-47.2C-157.8,377.2-170,360.2-187.4,353.2z M-182,393C-182,393-182,393-182,393  h-7.1v26c0,1-0.8,1.8-1.8,1.8h-28.3c-1,0-1.8-0.8-1.8-1.8v-26h-7c-0.7,0-1.4-0.4-1.7-1.1c-0.3-0.7-0.1-1.5,0.4-2l23-23  c0.3-0.3,0.8-0.5,1.3-0.5c0.5,0,1,0.2,1.3,0.5l22.8,22.8c0.4,0.3,0.7,0.9,0.7,1.5C-180.1,392.1-180.9,393-182,393z"/></svg>
