<svg xmlns="http://www.w3.org/2000/svg" xmlns:xlink="http://www.w3.org/1999/xlink" version="1.1" x="0px" y="0px" viewBox="0 0 50 62.5" enable-background="new 0 0 50 50" xml:space="preserve"><path fill-rule="evenodd" clip-rule="evenodd" fill="#BA68C8" d="M31.168,38.191c0,0.545,0.166,0.924,0.379,1.196  c0.223,0.272,0.549,0.435,0.816,0.435c0.219,0,0.434-0.053,0.654-0.162c0.271-0.164,0.488-0.328,0.705-0.598  c0.164-0.219,0.385-0.546,0.492-0.926c0.162-0.379,0.219-0.76,0.219-1.143c0-0.487-0.168-0.867-0.383-1.141  c-0.273-0.325-0.545-0.434-0.924-0.434c-0.221,0-0.492,0.054-0.65,0.162c-0.221,0.109-0.436,0.326-0.654,0.597  c-0.164,0.271-0.326,0.6-0.436,0.981C31.223,37.537,31.168,37.865,31.168,38.191L31.168,38.191z M33.887,39.713  c-0.219,0.271-0.488,0.49-0.814,0.654c-0.275,0.214-0.596,0.27-0.867,0.27c-0.383,0-0.709-0.109-0.982-0.27  c-0.324-0.218-0.602-0.49-0.762-0.925c-0.219-0.38-0.328-0.815-0.328-1.306c0-0.6,0.164-1.195,0.488-1.794  c0.277-0.597,0.654-1.032,1.092-1.306c0.492-0.326,0.922-0.433,1.359-0.433c0.326,0,0.596,0.053,0.924,0.218  c0.27,0.16,0.543,0.434,0.762,0.76l0.162-0.815h0.979l-0.764,3.694c-0.104,0.546-0.158,0.817-0.158,0.871  c0,0.11,0,0.218,0.107,0.271c0.051,0.057,0.164,0.109,0.271,0.109c0.16,0,0.432-0.109,0.76-0.325  c0.436-0.325,0.76-0.707,1.031-1.196c0.221-0.488,0.328-1.031,0.328-1.576c0-0.6-0.107-1.195-0.436-1.739  c-0.326-0.544-0.816-0.978-1.467-1.251c-0.596-0.325-1.307-0.488-2.066-0.488c-0.871,0-1.684,0.163-2.391,0.598  c-0.705,0.381-1.252,0.977-1.684,1.739c-0.381,0.76-0.6,1.575-0.6,2.446c0,0.924,0.219,1.684,0.6,2.338  c0.432,0.707,0.979,1.143,1.736,1.466c0.762,0.328,1.578,0.489,2.5,0.489c0.979,0,1.797-0.161,2.447-0.489  c0.652-0.323,1.139-0.706,1.467-1.196h1.037c-0.223,0.383-0.549,0.762-0.984,1.196c-0.488,0.382-1.027,0.708-1.684,0.979  c-0.596,0.218-1.359,0.327-2.283,0.327c-0.813,0-1.572-0.109-2.281-0.327c-0.709-0.217-1.305-0.544-1.795-0.926  c-0.486-0.434-0.869-0.922-1.084-1.465c-0.326-0.709-0.494-1.469-0.494-2.287c0-0.921,0.219-1.792,0.543-2.605  c0.494-1.033,1.145-1.795,1.957-2.338c0.82-0.489,1.85-0.762,3.043-0.762c0.928,0,1.746,0.163,2.502,0.544  c0.709,0.382,1.309,0.925,1.74,1.685c0.328,0.654,0.545,1.359,0.545,2.119c0,1.09-0.381,2.013-1.141,2.882  c-0.707,0.708-1.416,1.087-2.227,1.087c-0.275,0-0.492,0-0.654-0.109c-0.162-0.055-0.271-0.16-0.326-0.324  C33.943,40.094,33.887,39.932,33.887,39.713L33.887,39.713z M32.963,29.221c4.727,0,8.59,3.861,8.59,8.593  c0,4.728-3.863,8.53-8.59,8.53c-1.141,0-2.23-0.217-3.205-0.596c-1.469,2.5-3.266,3.535-6.471,2.99  c1.74-1.196,2.721-3.099,2.938-5.708c-1.143-1.413-1.851-3.261-1.851-5.217C24.374,33.082,28.232,29.221,32.963,29.221  L32.963,29.221z M26.061,1.12c9.295,0,16.852,7.502,16.852,16.852c0,4.51-1.795,8.642-4.73,11.685  c-1.521-1.031-3.371-1.631-5.385-1.631c-4.24,0-7.823,2.773-9.077,6.632c-1.357-0.216-2.716-0.542-3.964-1.086  c-2.937,4.945-6.469,6.956-12.668,5.925c3.372-2.392,5.273-6.143,5.652-11.199c-2.228-2.826-3.532-6.412-3.532-10.325  C9.208,8.623,16.76,1.12,26.061,1.12L26.061,1.12z M17.579,11.991c-2.011,0-3.698,1.685-3.698,3.751v4.023  c0,2.01,1.688,3.693,3.698,3.693h7.771c2.013,0,3.701-1.683,3.701-3.693v-4.023c0-2.066-1.688-3.751-3.701-3.751H17.579  L17.579,11.991z M29.918,17.753l2.988,2.989l2.992,3.044v-6.033v-6.035l-2.992,2.99L29.918,17.753L29.918,17.753z M36.768,11.719  V23.84h1.629V11.719H36.768z"/></svg>
