<svg xmlns="http://www.w3.org/2000/svg" xmlns:xlink="http://www.w3.org/1999/xlink" version="1.1" x="0px" y="0px" viewBox="0 0 91 113.75" enable-background="new 0 0 91 91" xml:space="preserve"><g><path d="M45.269,72.892c29.097,0,43.876-18.637,44.121-23.237c0.132-2.542-2.862-6.098-4.659-7.992   c-3.571-3.763-17.022-16.044-40.151-16.044c-23.141,0-35.208,10.688-39.321,15.285c-1.455,1.625-4.799,5.747-4.45,8.913   C1.41,55.191,16.439,72.892,45.269,72.892z M83.743,49.453c-0.94,2.174-5.567,7.674-13.78,12.006   c3.242-7.022,4.161-15.676,1.667-23.095C78.769,42.59,82.884,47.482,83.743,49.453z M63.181,34.382   c6.584,7.746,5.508,22.554-2.2,30.726c-4.566,1.356-9.804,2.221-15.712,2.221c-7.067,0-13.168-1.173-18.304-2.932   c-8.366-8.682-6.59-22.521-0.027-30.53c0.022-0.027,0.036-0.059,0.056-0.085c4.911-1.57,10.746-2.6,17.586-2.6   C51.718,31.182,57.927,32.475,63.181,34.382z M18.369,37.51c-2.947,6.954-3.551,15.285-0.645,22.612   c-7.124-4.267-10.901-9.159-11.366-10.84C6.689,47.43,10.5,41.957,18.369,37.51z"/><path d="M34.385,58.336c2.635,2.599,6.185,4.028,9.999,4.03l0,0c2.664,0,5.271-0.713,7.538-2.062   c3.085-1.833,5.331-5.412,6.008-9.569c0.666-4.106-0.288-8.007-2.616-10.699c-1.856-2.154-4.227-3.679-6.854-4.414   c-2.677-0.747-5.614-0.672-8.483,0.212c-4.31,1.332-7.708,5.108-8.87,9.853C29.947,50.433,31.171,55.159,34.385,58.336z    M36.512,47.009c0.698-2.855,2.657-5.101,5.106-5.858c1.029-0.317,2.051-0.478,3.042-0.478c0.792,0,1.57,0.104,2.304,0.308   c1.589,0.446,2.981,1.35,4.143,2.692c1.229,1.425,1.727,3.73,1.33,6.171c-0.407,2.517-1.695,4.69-3.357,5.681   c-1.407,0.835-3.032,1.278-4.696,1.278c-2.343-0.002-4.504-0.862-6.091-2.426C36.485,52.591,35.819,49.837,36.512,47.009z"/></g></svg>
