<svg xmlns="http://www.w3.org/2000/svg" xmlns:xlink="http://www.w3.org/1999/xlink" version="1.1" x="0px" y="0px" viewBox="0 0 100 125" enable-background="new 0 0 100 100" xml:space="preserve"><g><path d="M55.797,35.747c-22.147,0-40.167,18.019-40.167,40.167c0,1.585,0.096,3.197,0.286,4.793   c0.12,1.006,0.973,1.764,1.985,1.764h75.79c1.013,0,1.866-0.758,1.985-1.764c0.19-1.596,0.287-3.208,0.287-4.793   C95.964,53.766,77.944,35.747,55.797,35.747z M52.501,48.782c-0.768,1.458-7.17,3.468-7.292,5.631s2.683,2.842,3.231,4.567   c0.549,1.727,0.11,2.674-1.446,2.615c-1.558-0.059-3.081-2.029-4.364-2.25c-2.832-0.488-4.416,3.606-4.568,4.309   c-0.221,1.022,0.193,2.135,0.915,2.444c1.103,0.472,3.22-1.328,4.407-1.681c2.236-0.663,5.178,3.105,4.496,4.867   c-0.568,1.469-2.668,0.356-3.889,1.22c-1.22,0.862-1.215,2.495-2.322,3.319c-2.734,2.036-3.643,1.158-4.781,2.635   c-1.627,2.106,1.471,3.687,4.821,4.817h-7.913c-2.369-1.19-4.892-3.138-6.059-7.588c-0.484-1.854,0.918-2.632,0.795-4.403   c-0.123-1.772-0.742-4.457-1.516-5.992s-1.816-2.401-2.96-2.888c-1.112-0.473-2.388,0.517-3.248,0.243   c1.372-3.14,3.153-6.059,5.278-8.69c1.963,0.023,2.422,2.481,4.611,3.61c2.219,1.145,4.546-3.745,6.858-4.909   c2.312-1.164,5.233-1.527,7.436-2.094c2.203-0.565,4.406-1.339,5.775-1.3C52.138,47.306,53.267,47.325,52.501,48.782z    M93.771,79.757c-0.049,0.427-0.048,0.631-0.116,1.52H59.142c0.038-0.208,0.092-0.411,0.162-0.603   c0.313-0.852,1.264-1.43,1.738-2.125c0.476-0.695,0.579-1.403,1.061-1.84c0.482-0.437,0.813-0.164,1.622-0.338   c0.81-0.175,1.936-1.139,2.651-0.884c0.715,0.256,0.599,0.221,0.777,1.2c0.18,0.979,1.545,1.795,2.6,1.264   c1.296-0.652,1.538-0.845,2.283-1.157c5.848-2.452,0.67-9.86-2.123-7.015c-0.838,0.854,2.053,2.26,0.947,3.723   c-0.987,1.306-3.953-2.374-4.287-2.355c-1.201,0.069-2.41,2.753-3.519,2.753c-0.987,0-1.958-1.529-1.958-2.067   c0-0.596,0.727-0.867,2.16-1.694c0.828-0.479-1.243-1.457-0.846-1.843c0.398-0.387,3.052-1.329,4.543-1.765   c1.491-0.437,2.139,0.216,3.133-0.051c0.975-0.262,0.042-1.402,1.68-3.041c1.361-1.36-1.064-3.229-2.033-3.144   c-3.163,0.278-2.072,3.969-3.895,3.559c-2.874-0.646-0.654-7.717,4.141-7.381c1.963,0.138,3.966,3.028,4.691,2.324   c0.727-0.704-0.102-2.484,0.385-3.521c0.486-1.038,2.107-3.424,2.742-2.382c1.061,1.743-0.607,5.362,0.772,5.486   c1.451,0.13,1.849-2.207,2.511-2.941c0.536-0.594,1.156,0.413,1.826,0c1.818-1.118,1.197-2.92,1.684-4.576   c5.837,6.703,9.373,15.465,9.373,25.052C93.964,77.211,93.897,78.493,93.771,79.757z"/><path d="M48.533,26.88c1.946,1.489,4.136,2.407,6.688,2.802c0.581,0.09,1.162,0.18,1.742,0.27l-2.701,2.607l4.68,0.673l5.828-2.072   c2.459,0.381,4.917,0.761,7.376,1.142c1.618,0.25,6.018-0.376,6.278-2.064c0.243-1.569-3.742-3.614-5.361-3.865   c-2.848-0.44-5.696-0.881-8.545-1.322l4.928,0.734l-7.872-4.881l-5.155-0.801l3.584,4.249c-2.295-0.355-4.59-0.711-6.885-1.065   c-1.395-0.216-2.162-5.278-2.402-5.317l-2.705-0.438l-1.178,7.609C22.657,29.396,4.226,50.536,4.226,75.914   c0,1.743,0.09,3.501,0.266,5.226c0.053,0.515,0.486,0.898,0.994,0.898c0.033,0,0.067-0.002,0.102-0.005   c0.55-0.057,0.949-0.547,0.894-1.097c-0.169-1.657-0.255-3.348-0.255-5.022C6.226,51.048,24.632,30.405,48.533,26.88z"/><path d="M43.734,31.571c0.532-0.145,0.847-0.694,0.702-1.228s-0.695-0.849-1.228-0.702C22.688,35.224,8.147,53.974,7.847,75.238   c-0.008,0.552,0.434,1.006,0.986,1.014c0.005,0,0.01,0,0.015,0c0.546,0,0.991-0.438,0.999-0.986   C10.135,54.889,24.069,36.92,43.734,31.571z"/><path d="M30.54,27.623c0.152,0,0.309-0.035,0.455-0.11c2.281-1.169,4.67-2.187,7.098-3.022c0.521-0.18,0.8-0.749,0.619-1.271   c-0.18-0.523-0.748-0.8-1.271-0.62c-2.517,0.866-4.993,1.921-7.358,3.134c-0.492,0.252-0.687,0.854-0.435,1.346   C29.825,27.425,30.177,27.623,30.54,27.623z"/><path d="M4.638,54.672c0.129,0.057,0.266,0.083,0.398,0.083c0.387,0,0.754-0.224,0.918-0.6   c4.178-9.572,10.982-17.695,19.677-23.492c0.46-0.307,0.584-0.927,0.277-1.387s-0.927-0.583-1.387-0.277   C15.507,35.009,8.452,43.431,4.12,53.354C3.899,53.861,4.131,54.45,4.638,54.672z"/></g></svg>
